HIERARCHY
ROOT Hips
{
	OFFSET 0.000000 0.000000 0.000000
	CHANNELS 6 Xposition Yposition Zposition Zrotation Yrotation Xrotation 
	JOINT LHipJoint
	{
		OFFSET 0.000000 0.000000 0.000000
		CHANNELS 3 Zrotation Yrotation Xrotation
		JOINT LeftUpLeg
		{
			OFFSET 1.363060 -1.794630 0.839290
			CHANNELS 3 Zrotation Yrotation Xrotation
			JOINT LeftLeg
			{
				OFFSET 2.448110 -6.726130 0.000000
				CHANNELS 3 Zrotation Yrotation Xrotation
				JOINT LeftFoot
				{
					OFFSET 2.562200 -7.039590 0.000000
					CHANNELS 3 Zrotation Yrotation Xrotation
					JOINT LeftToeBase
					{
						OFFSET 0.157640 -0.433110 2.322550
						CHANNELS 3 Zrotation Yrotation Xrotation
						End Site
						{
							OFFSET 0.000000 0.000000 0.000000
						}
					}
				}
			}
		}
	}
	JOINT RHipJoint
	{
		OFFSET 0.000000 0.000000 0.000000
		CHANNELS 3 Zrotation Yrotation Xrotation
		JOINT RightUpLeg
		{
			OFFSET -1.305520 -1.794630 0.839290
			CHANNELS 3 Zrotation Yrotation Xrotation
			JOINT RightLeg
			{
				OFFSET -2.542530 -6.985550 0.000000
				CHANNELS 3 Zrotation Yrotation Xrotation
				JOINT RightFoot
				{
					OFFSET -2.568260 -7.056230 0.000000
					CHANNELS 3 Zrotation Yrotation Xrotation
					JOINT RightToeBase
					{
						OFFSET -0.164730 -0.452590 2.363150
						CHANNELS 3 Zrotation Yrotation Xrotation
						End Site
						{
							OFFSET 0.000000 0.000000 0.000000
						}
					}
				}
			}
		}
	}
}
MOTION
Frames: 27
Frame Time: 0.008333
-5.702271 16.919809 0.925474 -29.918680 81.883992 -12.510550 -9.119337 -0.025657 -1.832818 -18.495503 11.819043 -42.443447 -3.312545 0.146329 14.487831 1.357902 7.551526 -1.260310 1.282700 -0.000000 -2.134700 10.420472 -2.060500 -2.653652 7.580328 -4.939309 -12.484525 1.648868 -2.689621 38.298418 1.172663 13.494436 0.500940 1.444700 -0.000000 -70.229500
-5.595482 16.946867 0.892283 -29.097565 81.787162 -11.702211 -9.146507 -0.013136 -1.886684 -18.502118 11.846822 -41.825431 -3.301418 0.110768 14.421642 1.413724 7.786066 -1.838513 1.220200 0.000000 -2.280899 10.543428 -2.022063 -2.674183 7.178803 -4.940174 -13.649402 1.342449 -2.882131 40.539416 1.126422 13.777709 2.747035 1.995300 -0.000000 -71.642000
-5.491964 16.973700 0.855448 -28.789103 81.675897 -11.437335 -9.171917 -0.006578 -1.962868 -18.473832 11.963500 -41.154592 -3.292693 0.072480 14.275906 1.451340 7.932064 -2.347407 1.150100 -0.000000 -2.442200 10.658859 -1.967491 -2.697823 6.852252 -4.900754 -14.747680 1.049402 -3.049277 42.684283 1.055590 13.972890 4.936597 2.556600 0.000000 -72.558500
-5.391296 16.999839 0.815307 -28.947703 81.554285 -11.669414 -9.196527 -0.002802 -2.057312 -18.410648 12.163076 -40.454265 -3.286422 0.036565 14.082036 1.467371 7.975241 -2.764533 1.077400 0.000000 -2.598000 10.765460 -1.898566 -2.725974 6.598769 -4.836862 -15.773167 0.776520 -3.192091 44.722989 0.964442 14.031065 6.975674 3.080400 0.000000 -73.022600
-5.292932 17.025020 0.772450 -29.497757 81.431302 -12.319208 -9.220954 0.000527 -2.163960 -18.315656 12.425602 -39.742094 -3.282013 0.005842 13.864591 1.461904 7.917547 -3.081325 1.006900 0.000000 -2.738800 10.862824 -1.818163 -2.760708 6.410217 -4.767865 -16.727133 0.527517 -3.313818 46.652351 0.857907 13.897609 8.782904 3.513300 0.000000 -73.111000
-5.196439 17.049126 0.727549 -30.363775 81.318273 -13.306486 -9.245153 0.005163 -2.275713 -18.193143 12.723786 -39.029229 -3.278323 -0.018799 13.641926 1.438059 7.774158 -3.303404 0.941900 -0.000000 -2.864300 10.951432 -1.729492 -2.803905 6.276353 -4.713197 -17.616102 0.303092 -3.418696 48.473421 0.740147 13.519750 10.297429 3.806000 -0.000001 -72.908300
-5.101362 17.072133 0.681261 -31.510649 81.224427 -14.587906 -9.267528 0.011960 -2.385268 -18.044710 13.027159 -38.326975 -3.273851 -0.037636 13.429355 1.400910 7.567267 -3.449663 0.883200 0.000000 -2.980200 11.032702 -1.635005 -2.856875 6.191499 -4.687180 -18.450550 0.101828 -3.510671 50.188074 0.613592 12.853805 11.481776 3.920700 0.000000 -72.483899
-5.007425 17.094120 0.634277 -32.898090 81.159747 -16.117142 -9.286629 0.021622 -2.485672 -17.874628 13.304908 -37.636712 -3.267027 -0.052530 13.232115 1.356749 7.326064 -3.544604 0.830500 0.000000 -3.097200 11.108118 -1.536538 -2.920130 6.146078 -4.701600 -19.240879 -0.078753 -3.593137 51.798187 0.478657 11.876367 12.322123 3.839000 -0.000000 -71.879600
-4.914332 17.115169 0.587211 -34.513588 81.131188 -17.874920 -9.300529 0.034246 -2.571441 -17.686557 13.530429 -36.957549 -3.256483 -0.065898 13.050516 1.311634 7.078918 -3.615587 0.783000 -0.000000 -3.227100 11.179201 -1.435045 -2.993243 6.132971 -4.761452 -19.996896 -0.240951 -3.668477 53.302716 0.334123 10.587654 12.825178 3.564601 0.000000 -71.104900
-4.821958 17.135429 0.540522 -36.362129 81.142309 -19.860011 -9.307362 0.049387 -2.639275 -17.484175 13.685055 -36.286138 -3.241333 -0.080330 12.879978 1.270496 6.849770 -3.687673 0.739400 -0.000000 -3.380400 11.247307 -1.330919 -3.074890 6.146351 -4.865592 -20.726857 -0.386299 -3.738245 54.698055 0.177887 9.013792 13.015253 3.121600 0.000000 -70.142900
-4.730167 17.154942 0.494528 -38.467575 81.192803 -22.091299 -9.305657 0.066174 -2.687904 -17.271314 13.759136 -35.619046 -3.221277 -0.098091 12.714294 1.236458 6.654172 -3.780316 0.698500 -0.000000 -3.563800 11.313506 -1.224708 -3.162577 6.181582 -5.007755 -21.436871 -0.515288 -3.803360 55.977511 0.007988 7.205034 12.931642 2.550700 0.000000 -68.965600
-4.638971 17.173767 0.449504 -40.846931 81.280681 -24.583698 -9.295038 0.083702 -2.717991 -17.053471 13.752433 -34.950485 -3.196767 -0.121081 12.544169 1.210689 6.498821 -3.904039 0.659201 0.000000 -3.779300 11.378262 -1.117540 -3.252691 6.232510 -5.177714 -22.129800 -0.627731 -3.864394 57.132955 -0.176276 5.231743 12.625448 1.901400 -0.000001 -67.547000
-4.548216 17.191847 0.405469 -43.549513 81.399033 -27.381423 -9.275563 0.100430 -2.731062 -16.834515 13.673929 -34.286057 -3.169042 -0.150022 12.367759 1.192154 6.377504 -4.062831 0.620300 0.000000 -4.020200 11.441589 -1.011796 -3.339728 6.298689 -5.361153 -22.812046 -0.722768 -3.921709 58.156178 -0.373324 3.175705 12.153303 1.223800 -0.000000 -65.853800
-4.458331 17.209152 0.362511 -46.550077 81.541201 -30.466054 -9.248716 0.114631 -2.735540 -16.620641 13.539600 -33.605443 -3.139081 -0.185601 12.166627 1.179044 6.284185 -4.246401 0.582000 -0.000000 -4.283599 11.503481 -0.907544 -3.424272 6.365201 -5.546724 -23.471470 -0.799996 -3.976136 59.036200 -0.579280 1.123999 11.581933 0.563400 0.000000 -63.986400
-4.368935 17.225538 0.320463 -49.911999 81.696542 -33.893915 -9.216554 0.124927 -2.732107 -16.415692 13.369765 -32.931600 -3.109466 -0.226621 11.952933 1.167151 6.193569 -4.448291 0.542800 -0.000000 -4.549900 11.562361 -0.810090 -3.497484 6.436914 -5.718661 -24.119688 -0.858552 -4.027785 59.768350 -0.787072 -0.841015 10.964179 -0.046200 -0.000000 -61.917300
-4.280228 17.240908 0.279247 -53.621106 81.856171 -37.654579 -9.182104 0.130035 -2.727234 -16.224798 13.185808 -32.261692 -3.082023 -0.271951 11.724180 1.152623 6.086284 -4.652575 0.503100 -0.000000 -4.806400 11.616770 -0.721670 -3.557735 6.505269 -5.866986 -24.751016 -0.898471 -4.077207 60.347163 -0.988270 -2.646524 10.351908 -0.582100 -0.000000 -59.755899
-4.192191 17.255147 0.238716 -57.663239 82.011444 -41.735807 -9.148689 0.129077 -2.725229 -16.051761 13.007134 -31.601448 -3.058621 -0.319879 11.485633 1.131643 5.941801 -4.845061 0.463100 -0.000000 -5.039300 11.664700 -0.644963 -3.602743 6.564621 -5.984261 -25.363193 -0.920051 -4.124631 60.770338 -1.173815 -4.234909 9.781741 -1.032200 -0.000000 -57.601601
-4.104872 17.268161 0.198798 -62.011507 82.155726 -46.113009 -9.119354 0.121841 -2.729258 -15.899939 12.847471 -30.955376 -3.040651 -0.368636 11.243856 1.101344 5.744547 -5.013670 0.423600 0.000000 -5.237999 11.704216 -0.581731 -3.631584 6.609395 -6.066885 -25.953635 -0.923926 -4.170070 61.038209 -1.335454 -5.565637 9.275257 -1.392700 0.000000 -55.555500
-4.018235 17.279887 0.159370 -66.647046 82.283198 -50.768765 -9.096768 0.108100 -2.740850 -15.770490 12.714757 -30.330492 -3.028826 -0.416491 11.009714 1.060082 5.484432 -5.152228 0.385000 0.000000 -5.396000 11.733348 -0.533434 -3.644126 6.636521 -6.114858 -26.521001 -0.910704 -4.213478 61.153542 -1.466878 -6.616744 8.838361 -1.665100 0.000000 -53.711400
-3.932291 17.290337 0.120427 -71.542124 82.390340 -55.677721 -9.082346 0.088332 -2.760245 -15.664049 12.607028 -29.726087 -3.022891 -0.462432 10.788767 1.008183 5.162631 -5.258111 0.348100 -0.000000 -5.512900 11.751100 -0.499880 -3.642123 6.640899 -6.131994 -27.061892 -0.881132 -4.254653 61.120653 -1.564272 -7.382823 8.463147 -1.853400 0.000001 -52.130700
-3.846988 17.299521 0.081919 -76.699103 82.473860 -60.842432 -9.077413 0.062189 -2.785915 -15.578787 12.516354 -29.145232 -3.021846 -0.505814 10.590673 0.947231 4.785920 -5.336280 0.312900 -0.000000 -5.592200 11.755959 -0.481390 -3.627346 6.622235 -6.123888 -27.576283 -0.835637 -4.293631 60.945816 -1.626635 -7.874952 8.131968 -1.964200 0.000000 -50.849900
-3.762369 17.307513 0.043863 -82.121590 82.530598 -66.267765 -9.082955 0.029276 -2.815368 -15.512199 12.427762 -28.584509 -3.023838 -0.546776 10.419592 0.880224 4.369759 -5.394892 0.279400 -0.000000 -5.642300 11.746492 -0.477548 -3.602654 6.579497 -6.098049 -28.062847 -0.774631 -4.330450 60.636146 -1.655507 -8.117484 7.821302 -2.005500 0.000000 -49.871600
-3.678370 17.314417 0.006231 -87.820735 82.555899 -71.964160 -9.100603 -0.011270 -2.845093 -15.460863 12.323253 -28.040967 -3.026641 -0.585834 10.279046 0.810789 3.933358 -5.445752 0.247600 0.000001 -5.673500 11.720271 -0.488124 -3.570625 6.514103 -6.061392 -28.521872 -0.698487 -4.364956 60.199086 -1.654600 -8.145826 7.507591 -1.987500 0.000000 -49.172900
-3.594988 17.320318 -0.030912 -93.783907 82.543553 -77.918755 -9.131958 -0.060124 -2.871675 -15.421001 12.183647 -27.507650 -3.027877 -0.623779 10.167334 0.742816 3.498842 -5.500653 0.217400 -0.000000 -5.697700 11.674817 -0.511852 -3.534300 6.427391 -6.019367 -28.952490 -0.607980 -4.396581 59.643028 -1.629067 -8.001970 7.170909 -1.921900 -0.000000 -48.712100
-3.512238 17.325341 -0.067599 -99.965921 82.485801 -84.085702 -9.179704 -0.117595 -2.891353 -15.388929 11.993039 -26.979986 -3.025484 -0.661146 10.082316 0.679654 3.085753 -5.570910 0.188900 0.000000 -5.724500 11.606534 -0.547010 -3.495569 6.322651 -5.974063 -29.355584 -0.504343 -4.423936 58.976184 -1.585002 -7.731883 6.798887 -1.822300 0.000000 -48.440800
-3.430067 17.329556 -0.103809 -106.262064 82.375067 -90.359717 -9.245987 -0.182599 -2.900777 -15.361162 11.740779 -26.453927 -3.018063 -0.698019 10.019179 0.623853 2.709740 -5.664716 0.162000 0.000000 -5.761300 11.512616 -0.590374 -3.455438 6.203486 -5.923116 -29.730623 -0.389704 -4.444597 58.207334 -1.528672 -7.380799 6.387445 -1.702400 0.000000 -48.310100
-3.348495 17.333050 -0.139551 -112.530049 82.205218 -96.597898 -9.331395 -0.252752 -2.897536 -15.334371 11.422232 -25.927274 -3.004984 -0.733970 9.972137 0.576953 2.380816 -5.786606 0.136900 -0.000000 -5.810700 11.392052 -0.637215 -3.414215 6.074268 -5.861013 -30.077781 -0.266812 -4.455533 57.344695 -1.465967 -6.989807 5.941264 -1.574900 -0.000000 -48.278700
